<?xml version="1.0" standalone="no"?>
<!DOCTYPE svg PUBLIC "-//W3C//DTD SVG 20010904//EN"
 "http://www.w3.org/TR/2001/REC-SVG-20010904/DTD/svg10.dtd">
<svg version="1.0" xmlns="http://www.w3.org/2000/svg"
 width="2500.000000pt" height="1911.000000pt" viewBox="0 0 2500.000000 1911.000000"
 preserveAspectRatio="xMidYMid meet">
<metadata>
Created by potrace 1.16, written by Peter Selinger 2001-2019
</metadata>
<g transform="translate(0.000000,1911.000000) scale(0.100000,-0.100000)"
fill="#000000" stroke="none">
<path d="M0 9555 l0 -9555 12500 0 12500 0 0 9555 0 9555 -12500 0 -12500 0 0
-9555z m5348 8123 c28 -2020 106 -3672 262 -5543 151 -1802 371 -3613 605
-4975 202 -1173 590 -2585 975 -3550 138 -346 343 -707 543 -955 87 -107 265
-279 357 -344 89 -63 224 -132 299 -155 247 -73 575 94 883 451 154 178 316
410 432 619 314 561 829 2270 1100 3649 404 2053 681 4711 811 7790 33 772 65
1982 65 2428 l0 217 1263 0 1264 0 6 -727 c26 -3018 301 -6309 758 -9058 98
-589 191 -1069 299 -1541 245 -1070 650 -2286 932 -2798 298 -541 675 -916
1032 -1025 217 -67 444 22 705 274 295 286 590 748 781 1225 375 934 750 2415
1025 4045 395 2337 663 5469 765 8925 18 630 30 1237 30 1588 l0 342 1267 0
1266 0 -7 -487 c-31 -2207 -174 -4142 -462 -6243 -305 -2229 -835 -4700 -1300
-6070 -419 -1236 -969 -2405 -1541 -3278 -182 -278 -323 -452 -552 -680 -531
-527 -1171 -865 -1763 -931 -284 -32 -682 68 -1032 259 -578 316 -1182 890
-1633 1552 -495 728 -1015 1833 -1483 3153 -102 288 -243 715 -310 938 -30 97
-57 177 -60 177 -4 0 -15 -30 -25 -67 -127 -482 -399 -1288 -626 -1856 -430
-1074 -995 -2142 -1423 -2692 -281 -359 -620 -691 -938 -916 -514 -365 -1137
-587 -1541 -549 -579 55 -1203 422 -1828 1075 -153 160 -249 275 -356 426
-662 934 -1434 2688 -1901 4319 -564 1969 -985 4429 -1237 7235 -126 1408
-209 2920 -231 4238 l-7 397 1259 0 1260 0 12 -882z m-3734 312 c123 -31 209
-82 306 -180 92 -93 138 -163 178 -268 22 -58 26 -83 26 -187 1 -101 -3 -132
-23 -194 -63 -191 -230 -351 -436 -417 -212 -68 -492 -1 -645 155 -72 73 -139
193 -165 296 -33 132 -9 318 62 464 27 57 55 94 117 156 167 165 374 228 580
175z"/>
<path d="M1342 17890 c-40 -11 -99 -33 -130 -50 -108 -58 -112 -65 -196 -289
-82 -219 -86 -246 -61 -346 41 -160 133 -281 267 -349 132 -66 255 -83 381
-50 179 46 304 163 375 352 63 166 15 435 -100 565 -27 30 -67 51 -210 112
-195 83 -209 85 -326 55z m38 -322 l105 -157 68 -1 67 0 0 160 0 160 50 0 50
0 0 -380 0 -380 -137 0 c-221 0 -315 25 -370 97 -35 46 -43 133 -19 198 21 55
74 102 123 111 64 11 67 16 35 60 -15 21 -68 97 -116 167 l-88 128 63 -3 64
-3 105 -157z"/>
<path d="M1404 17298 c-49 -9 -52 -11 -78 -67 -27 -56 -28 -59 -12 -89 27 -52
66 -66 191 -66 l110 -1 3 118 3 117 -83 -1 c-46 -1 -106 -6 -134 -11z"/>
</g>
</svg>
